<?xml version="1.0" encoding="UTF-8" standalone="no"?>
<!DOCTYPE svg PUBLIC "-//W3C//DTD SVG 1.1//EN"
 "http://www.w3.org/Graphics/SVG/1.1/DTD/svg11.dtd">
<!-- Generated by graphviz version 2.40.1 (20161225.0304)
 -->
<!-- Title: sphinx&#45;ext&#45;graphviz Pages: 1 -->
<svg width="432pt" height="55pt"
 viewBox="0.00 0.00 432.00 54.61" xmlns="http://www.w3.org/2000/svg" xmlns:xlink="http://www.w3.org/1999/xlink">
<g id="graph0" class="graph" transform="scale(.7002 .7002) rotate(0) translate(4 74)">
<title>sphinx&#45;ext&#45;graphviz</title>
<polygon fill="#ffffff" stroke="transparent" points="-4,4 -4,-74 613,-74 613,4 -4,4"/>
<!-- sphinx -->
<g id="node1" class="node">
<title>sphinx</title>
<g id="a_node1"><a xlink:href="https://www.sphinx-doc.org/" xlink:title="Sphinx" target="_blank">
<polygon fill="none" stroke="#000000" points="204,-40 147,-40 147,-36 143,-36 143,-32 147,-32 147,-12 143,-12 143,-8 147,-8 147,-4 204,-4 204,-40"/>
<polyline fill="none" stroke="#000000" points="147,-36 151,-36 151,-32 147,-32 "/>
<polyline fill="none" stroke="#000000" points="147,-12 151,-12 151,-8 147,-8 "/>
<text text-anchor="middle" x="175.5" y="-18.9" font-family="Verdana" font-size="12.00" fill="#000000">Sphinx</text>
</a>
</g>
</g>
<!-- graphviz -->
<g id="node2" class="node">
<title>graphviz</title>
<g id="a_node2"><a xlink:href="https://www.graphviz.org/" xlink:title="GraphViz" target="_blank">
<polygon fill="none" stroke="#000000" points="333,-70 262,-70 262,-66 258,-66 258,-62 262,-62 262,-42 258,-42 258,-38 262,-38 262,-34 333,-34 333,-70"/>
<polyline fill="none" stroke="#000000" points="262,-66 266,-66 266,-62 262,-62 "/>
<polyline fill="none" stroke="#000000" points="262,-42 266,-42 266,-38 262,-38 "/>
<text text-anchor="middle" x="297.5" y="-48.9" font-family="Verdana" font-size="12.00" fill="#000000">GraphViz</text>
</a>
</g>
</g>
<!-- sphinx&#45;&gt;graphviz -->
<g id="edge2" class="edge">
<title>sphinx&#45;&gt;graphviz</title>
<path fill="none" stroke="#000000" stroke-dasharray="5,2" d="M204.1036,-29.0337C221.2882,-33.2594 243.3052,-38.6734 261.6458,-43.1834"/>
<text text-anchor="middle" x="233" y="-40.8" font-family="Sans" font-size="9.00" fill="#000000"> call </text>
</g>
<!-- html_files -->
<g id="node5" class="node">
<title>html_files</title>
<polygon fill="#ffff00" stroke="#000000" points="609,-36 606,-40 585,-40 582,-36 529,-36 529,0 609,0 609,-36"/>
<text text-anchor="middle" x="569" y="-14.9" font-family="Verdana" font-size="12.00" fill="#000000">HTML Files</text>
</g>
<!-- sphinx&#45;&gt;html_files -->
<g id="edge4" class="edge">
<title>sphinx&#45;&gt;html_files</title>
<path fill="none" stroke="#000000" d="M204.1165,-21.7091C270.4142,-21.0352 435.2288,-19.3598 518.7612,-18.5107"/>
<polygon fill="#000000" stroke="#000000" points="518.8123,-22.0104 528.7761,-18.4089 518.741,-15.0108 518.8123,-22.0104"/>
<text text-anchor="middle" x="369.5" y="-23.8" font-family="Sans" font-size="9.00" fill="#000000"> render </text>
</g>
<!-- svg_file -->
<g id="node4" class="node">
<title>svg_file</title>
<polygon fill="#3333ff" stroke="#000000" points="486,-70 406,-70 406,-34 492,-34 492,-64 486,-70"/>
<polyline fill="none" stroke="#000000" points="486,-70 486,-64 "/>
<polyline fill="none" stroke="#000000" points="492,-64 486,-64 "/>
<text text-anchor="middle" x="449" y="-48.9" font-family="Verdana" font-size="12.00" fill="#ffffff">SVG Image</text>
</g>
<!-- graphviz&#45;&gt;svg_file -->
<g id="edge3" class="edge">
<title>graphviz&#45;&gt;svg_file</title>
<path fill="none" stroke="#000000" d="M333.02,-52C351.6497,-52 374.8528,-52 395.5993,-52"/>
<polygon fill="#000000" stroke="#000000" points="395.8705,-55.5001 405.8704,-52 395.8704,-48.5001 395.8705,-55.5001"/>
<text text-anchor="middle" x="369.5" y="-54.8" font-family="Sans" font-size="9.00" fill="#000000"> draw </text>
</g>
<!-- docs -->
<g id="node3" class="node">
<title>docs</title>
<polygon fill="#00ff00" stroke="#000000" points="80,-40 77,-44 56,-44 53,-40 0,-40 0,-4 80,-4 80,-40"/>
<text text-anchor="middle" x="40" y="-18.9" font-family="Verdana" font-size="12.00" fill="#000000">Docs (.rst)</text>
</g>
<!-- docs&#45;&gt;sphinx -->
<g id="edge1" class="edge">
<title>docs&#45;&gt;sphinx</title>
<path fill="none" stroke="#000000" d="M80.2876,-22C97.9888,-22 118.7007,-22 136.2782,-22"/>
<polygon fill="#000000" stroke="#000000" points="136.7627,-25.5001 146.7626,-22 136.7626,-18.5001 136.7627,-25.5001"/>
<text text-anchor="middle" x="113.5" y="-24.8" font-family="Sans" font-size="9.00" fill="#000000"> parse </text>
</g>
<!-- svg_file&#45;&gt;html_files -->
<g id="edge5" class="edge">
<title>svg_file&#45;&gt;html_files</title>
<path fill="none" stroke="#000000" stroke-dasharray="5,2" d="M492.3228,-39.7252C501.0051,-37.2652 510.1935,-34.6619 519.0783,-32.1445"/>
<polygon fill="#000000" stroke="#000000" points="520.2703,-35.4446 528.9375,-29.351 518.3621,-28.7097 520.2703,-35.4446"/>
</g>
</g>
</svg>
